<svg version="1.2" xmlns="http://www.w3.org/2000/svg" viewBox="0 0 219 294" width="219" height="294">
	<title>developer-svg</title>
	<style>
		.s0 { fill: #6392ff } 
		.s1 { fill: #ffffff } 
		.s2 { fill: none;stroke: #263238;stroke-linecap: round;stroke-linejoin: round;stroke-width: 1.1 } 
		.s3 { opacity: .5;fill: #ffffff } 
		.s4 { opacity: .2;fill: #000000 } 
		.s5 { fill: #263238 } 
		.s6 { fill: none;stroke: #263238;stroke-linecap: round;stroke-linejoin: round;stroke-width: 2.2 } 
		.s7 { opacity: .2;fill: none;stroke: #ffffff;stroke-linecap: round;stroke-linejoin: round;stroke-width: 1.1 } 
		.s8 { fill: #ffffff;stroke: #263238;stroke-linecap: round;stroke-linejoin: round;stroke-width: 1.1 } 
		.s9 { fill: none;stroke: #ffffff;stroke-linecap: round;stroke-linejoin: round;stroke-width: 1.1 } 
	</style>
	<g id="freepik--Character--inject-63">
		<path id="Layer" class="s0" d="m96.9 251.5c0 0-29 8.3-33.1 9.7-3.7 1.3-13.6 4.8-21.1 3.7q-0.3 0-0.6-0.1-0.3 0-0.5-0.1-0.3 0-0.6-0.1-0.2-0.1-0.5-0.1c-7.6-2.3-11-4.4-12-9.2-1-4.7 2.8-8.3 6.4-10.5 3.7-2.3 23.4-4.6 23.4-4.6l4.8 1.4z"/>
		<path id="Layer" class="s1" d="m42.7 264.9q-0.3 0-0.6-0.1-0.3 0-0.5-0.1-0.3 0-0.6-0.1-0.2-0.1-0.5-0.1c-7.6-2.3-11-4.4-12-9.2-1-4.7 2.8-8.3 6.4-10.5 3.7-2.3 23.4-4.6 23.4-4.6l4.8 1.4c-4.3 2-20.4 3.1-23.9 5.1-3.5 2-5.2 5.8-3.2 11 1.2 2.7 4.1 5.4 6.7 7.2z"/>
		<path id="Layer" class="s2" d="m92.5 252.6c0 0-21.8 5.7-30.4 9.3-8.7 3.6-25.1 5.2-31-2.3-5.9-7.4-0.7-13.8 5.2-15.2 5.8-1.5 17.7-3.7 24.2-2.8"/>
		<path id="Layer" class="s2" d="m43.1 264.5c0 0-11.1-6-7.4-14.6 2.7-6.2 17.5-4.9 24.8-8.3"/>
		<path id="Layer" class="s0" d="m185.2 266.3c-0.3 3-1.4 5.8-4.4 7.6-2 1.1-4.8 1.8-8.9 1.8-10.1-0.1-29.3-7.4-29.3-7.4l-17.9-9.9 9.3-14.7 2.6-4 6.6 1.4c0 0 5.4 3.1 10.9 5.6 5.5 2.5 18.8 3 23.5 6.8 4.7 3.7 8.1 7.8 7.6 12.8z"/>
		<path id="Layer" class="s1" d="m185.2 266.3c-0.3 3-1.4 5.8-4.4 7.6q0.4-1.1 0.5-2.3 0.1-1.1 0.1-2.3-0.1-1.1-0.4-2.2-0.2-1.1-0.7-2.2c-2-4.5-8.5-8.4-17-9.1-8.6-0.7-15.1-4.7-18.6-6.4-2.7-1.4-8.3-4.5-10.7-5.7l2.6-4 6.6 1.4c0 0 5.4 3.1 10.9 5.6 5.5 2.5 18.8 3 23.5 6.8 4.7 3.7 8.1 7.8 7.6 12.8z"/>
		<path id="Layer" class="s2" d="m126.8 249.1c2-3.1 6.2-4 9.8-3.3 3.5 0.8 6.7 2.8 9.9 4.5q1.5 0.8 3.1 1.5 1.6 0.7 3.2 1.3 1.6 0.6 3.3 1.1 1.6 0.5 3.3 0.9c4.5 1 9.2 1.4 13.4 3.2 4.3 1.8 8.1 5.5 8.5 10.1q0.1 0.7 0.1 1.3-0.1 0.7-0.3 1.4-0.2 0.6-0.5 1.3-0.3 0.6-0.8 1.1c-2.1 2.4-5.9 2.4-9.2 2q-5.5-0.7-10.9-2-5.5-1.3-10.7-3.1-5.3-1.8-10.4-4.1-5.1-2.3-9.9-5.1"/>
		<path id="Layer" class="s2" d="m136 241.4c6.5-1.7 12.7 3.1 19 5.6 4.1 1.6 8.5 2.2 12.8 3.1 4.3 0.9 8.6 2.2 12.1 4.8 3.5 2.7 5.9 7.1 5.3 11.4q-0.3 1.3-0.9 2.6-0.5 1.3-1.4 2.4-0.8 1.1-1.9 2-1.1 0.8-2.4 1.4"/>
		<path id="Layer" fill-rule="evenodd" class="s0" d="m179.6 168.4c-13.7 22.6-39.6 32.3-46.9 34.6-1.2 0.4-1.9 0.6-1.9 0.6 0 0-43.1 1.2-55.2-3-12.1-4.2-33.2-20.4-34.7-23.8-1.5-3.4 1.4-12.2 3.1-22 1.6-9.8 6.7-43.2 11.3-46.4 4.1-3 23.7-10.4 27.4-11.7l0.5-0.2c0 0-0.4-5.4 0.9-9 2.8-4.5 9-3.4 9-3.4 0 0 8.7-3.8 13.3-1.7 4.7 2.2 9.5 0.5 11.2 2.5 1.1 1.3 1 5.3 0.8 7.7 0 1.2-0.2 2-0.2 2l0.4 0.1 30.3 11.6c17.4 18.6 30.7 62.1 30.7 62.1zm-103.7-7.1l-4.1-18-9.5 23.4 3.8 3.4c0 0-1.3-6.1 1-7.7 2.2-1.6 8.8-1.1 8.8-1.1zm79.7 5.7c-2.2-7.1-13.9-27.3-13.9-27.3l-1.2 1.3-3.4 17.6-0.5 3.1c0 0 5.8-0.3 7.7 2.3 1.9 2.6-2.1 13.8-1.1 13.3-0.5 0 12.4-10.3 12.4-10.3z"/>
		<path id="Layer" class="s1" d="m115 34.5l7.2 6.3c0 0-2.6 8.6 1.5 9.7 4.7-1.3 4.7 3.3 4.3 7.3-0.5 4.1-3 8.3-4 9.3-1.1 1-3.3 0.5-3.6 2.4-0.4 1.9-5.2 9.2-5.2 9.2l-2 9.9c0 0-8.1 8.1-13.4 7.5-5.3-0.6-10.9-5.5-10.9-5.5 0.4-3.1-0.4-14.3-0.4-14.3-2.4-2.9-5.4-10.1-5.7-10.1q-0.5 0-0.9-0.1-0.5 0-1 0-0.4-0.1-0.9-0.1-0.4-0.1-0.9-0.2c-1.5-0.2-3.5-4.4-4.3-9.2-0.9-4.8 1.3-6.8 1.3-6.8l15.6-16.6z"/>
		<path id="Layer" class="s3" d="m118.6 94.7q-0.1 0.3-0.2 0.5-0.1 0.2-0.2 0.5-0.1 0.2-0.2 0.4-0.1 0.2-0.2 0.5c-2.6 4.8-13.8 14.1-13.8 14.1l-3.4-10.5-1.9 10.5c-3.7-1.7-15.2-11.6-15.2-11.6 0 0-0.3-0.9-0.8-2.4l0.6-0.1c0 0-0.5-5.5 0.9-9 2.7-4.5 9-3.4 9-3.4 0 0 8.6-3.8 13.3-1.7 4.6 2.1 9.4 0.5 11.1 2.5 1.7 1.9 0.7 9.6 0.7 9.6z"/>
		<path id="Layer" fill-rule="evenodd" class="s4" d="m179.6 168.4c-13.7 22.6-39.6 32.3-46.8 34.6l-6.9-7.1 2.3-27.2 5.5-47.7q0.2-1.8-0.1-3.7-0.3-1.8-1.2-3.4-0.8-1.6-2.1-3-1.3-1.3-3-2.1-1.7-0.9-3.4-1.7-1.7-0.9-3.5-1.6-1.7-0.8-3.5-1.5-1.8-0.7-3.6-1.4l4.5-6.1 0.6-3.9c0 1.2-0.2 2-0.2 2l0.4 0.1 30.3 11.6c17.4 18.5 30.7 62 30.7 62.1zm0 0q0 0 0 0 0 0 0 0zm-24-1.4c-2.2-7.1-13.9-27.3-13.9-27.3l-1.2 1.3-3.4 17.6-0.5 3.1c0 0 5.8-0.3 7.7 2.3 1.9 2.6-2.1 13.8-1.1 13.3-0.5 0 12.4-10.3 12.4-10.3z"/>
		<path id="Layer" fill-rule="evenodd" class="s4" d="m69 174.8l1.1 9c0 0-13.6-10.8-19.2-10.8-5.6 0-4.6-1.8 0-9 4.5-7.2 9.5-31.4 9.5-31.4l-1.5-20.2c4.3 5.2 10.1 22.5 12.8 31l-9.5 23.3 3.8 3.4c0 0-1.2-6.1 1-7.7 2.3-1.6 8.8-1.1 8.8-1.1l-3.9-17.1c0.8 2.5 1.3 4.1 1.3 4.1l4.7 15.7zm2.7-31.5l-0.1 0.1q0.2 0.4 0.3 0.8z"/>
		<path id="Layer" class="s2" d="m88.5 76.3c0 0 0.9 8.5 0 12.3"/>
		<path id="Layer" class="s2" d="m114.1 87.5q0-1 0.1-2 0-1.1 0.2-2.1 0.1-1 0.2-2 0.2-1 0.4-2"/>
		<path id="Layer" class="s2" d="m116.4 39.6c0 0 5.1 6.4 4.8 11.3-0.2 4.9-0.6 10.7-0.5 16.3 0.2 5.7-9.1 17.5-13.8 18.6-4.7 1.1-8.8 1.3-11.8-1.7-3.1-3-6.1-7.2-10-12.6-4-5.4-3-17.3-3-17.3"/>
		<path id="Layer" class="s2" d="m104 58.7q-0.1 0.7-0.2 1.3-0.1 0.7-0.1 1.4-0.1 0.7-0.1 1.3 0 0.7 0 1.4 0 0.5 0 1.1 0.1 0.6 0.3 1.1 0.1 0.5 0.4 1 0.3 0.5 0.6 1c0.6 0.6 1.4 1 1.5 1.8q0 0.3-0.1 0.6 0 0.2-0.2 0.5-0.1 0.2-0.3 0.4-0.2 0.2-0.4 0.3-0.3 0.1-0.5 0.2-0.3 0.2-0.5 0.3-0.2 0.1-0.4 0.3-0.3 0.1-0.5 0.3"/>
		<path id="Layer" class="s2" d="m95.9 73.6c0 0 0.6 3.8 5.7 4.6"/>
		<path id="Layer" class="s5" d="m96.4 61.6c0 1.1-0.5 2-1.1 2-0.6 0-1-0.9-1-2 0-1.1 0.4-2 1-2 0.6 0 1.1 0.9 1.1 2z"/>
		<path id="Layer" class="s5" d="m111.7 62.1c0 1.1-0.5 2-1.1 2-0.5 0-1-0.9-1-2 0-1.1 0.5-2 1-2 0.6 0 1.1 0.9 1.1 2z"/>
		<path id="Layer" class="s6" d="m108.6 57.3c0 0 5-5 9.2 0.5"/>
		<path id="Layer" class="s6" d="m98.1 57.4c0 0-3.2-3.6-8.2 0"/>
		<path id="Layer" class="s5" d="m88.5 76.3c0 0 6.5 9 13.1 10.3 6.6 1.3 12.5-6.4 12.5-6.4l0.5 1.6c0 0-9.1 12.4-15.9 10-6.8-2.4-9.8-10.8-9.8-10.8z"/>
		<path id="Layer" class="s2" d="m82.8 65.8c0 0-4.1 1.5-5.2-1.7-1.1-3.1-4.8-11.5-1.5-14.3 3.2-2.7 5.8 3.7 5.8 3.7"/>
		<path id="Layer" class="s2" d="m121.3 54.6c0 0 2.6-6.5 5.8-3.7 3.3 2.8-0.4 11.1-1.5 14.3-1.1 3.1-4.9 2.4-4.9 2.4"/>
		<path id="Layer" class="s5" d="m82.1 54.2c-4-7.4-7-3.7-7-3.7 0 0-7.5-10.3-3.5-17.7 4-7.5 13-8.5 13-8.5 2.6-5.1 8.8-5.7 13.8-5.1 5.9 0.6 11.6 4.4 17.4 2.2 3.2-1.2 6.4-3.1 9.9-2.2q1 0.2 1.9 0.7 0.8 0.5 1.5 1.2 0.7 0.7 1.1 1.6 0.4 0.9 0.5 1.9c0.9 7.9-6 14.2-13.1 15.6q-3 0.5-6 0.4-3-0.1-5.9-0.8-2.9-0.8-5.6-2.1-2.7-1.4-5-3.3 0.1 0.8 0 1.6-0.1 0.8-0.4 1.6-0.2 0.8-0.6 1.5-0.5 0.7-1 1.3c-1.3 1.7-3.1 3.1-4.5 4.8q-0.2 0.2-0.4 0.5-0.2 0.2-0.4 0.5-0.1 0.3-0.3 0.6-0.1 0.3-0.2 0.6-0.1 0.3-0.2 0.6 0 0.3 0 0.6-0.1 0.4-0.1 0.7 0 0.3 0 0.6 0 0.8 0 1.6 0 0.8-0.1 1.6-0.1 0.8-0.2 1.6-0.1 0.8-0.2 1.6-0.1 0.5-0.2 0.9 0 0.4-0.2 0.8-0.1 0.4-0.3 0.8-0.1 0.4-0.3 0.7-0.3 0.4-0.7 0.8-0.4 0.3-0.9 0.6-0.5 0.3-1 0.5-0.5 0.1-1 0.2z"/>
		<path id="Layer" class="s5" d="m122.4 37.7q1 1.5 1.5 3.2 0.6 1.6 0.8 3.4 0.1 1.8-0.2 3.5-0.3 1.8-1 3.4c-1.4 0.9-2.7 4.6-2.7 4.6-6.1-5.9-3.8-18.1-3.8-18.1 0 0 0.9-7.1 5.4 0z"/>
		<path id="Layer" class="s7" d="m80.9 42.7c0.5-7.1 8.1-13.4 15-12.7 8.5 0.7 16.8 4.5 25.2 1.1q1.3-0.5 2.4-1.2 1.1-0.7 2-1.7 0.9-0.9 1.6-2 0.6-1.2 1-2.4"/>
		<path id="Layer" class="s7" d="m75.6 40.8q0.1-2.1 0.8-4.1 0.6-2 1.8-3.7 1.2-1.8 2.9-3.1 1.6-1.3 3.5-2.1"/>
		<path id="Layer" class="s2" d="m115 86.5c-5.1 7.1-14 10.5-15.3 10q-1.8-0.8-3.6-1.7-1.8-1-3.4-2.1-1.7-1.1-3.2-2.4-1.6-1.3-3-2.8"/>
		<path id="Layer" class="s2" d="m96.9 69.8c-4.5 2-9.8 0.1-11.9-4.4-2.1-4.6-0.1-9.9 4.4-12 4.5-2 9.9 0 11.9 4.5 2.1 4.5 0.1 9.8-4.4 11.9z"/>
		<path id="Layer" class="s2" d="m114.3 70.6c-4.9 0.6-9.4-2.9-10-7.9-0.6-4.9 2.9-9.4 7.8-10 4.9-0.6 9.4 2.9 10 7.9 0.6 4.9-2.9 9.4-7.8 10z"/>
		<path id="Layer" class="s2" d="m114.6 84.2q0.5 0 1 0.2 0.5 0.1 1 0.5 0.4 0.3 0.7 0.7 0.3 0.4 0.5 1c1 2.4 0 10 0 10-3 6.4-13.8 14.1-13.8 14.1l-3.2-11.6-2.1 11.6c-7-3.5-15.2-11.6-15.2-11.6 0 0-0.9-8.8 0.7-11.6q0.3-0.6 0.8-1.1 0.4-0.6 1-1 0.5-0.4 1.2-0.7 0.6-0.4 1.3-0.5"/>
		<path id="Layer" class="s2" d="m75.6 161.7c0 0-3.2-21.5-7.5-30.3"/>
		<path id="Layer" class="s2" d="m58.9 112.4q1 1.3 1.8 2.6 0.9 1.4 1.7 2.8 0.9 1.4 1.7 2.8 0.7 1.4 1.5 2.9"/>
		<path id="Layer" class="s2" d="m143.2 128.4q0.4-1.3 0.7-2.7 0.4-1.3 0.9-2.6 0.4-1.3 0.9-2.6 0.5-1.3 1.1-2.6"/>
		<path id="Layer" class="s2" d="m136.6 161.7c0 0 2.3-14.7 5.1-26.9"/>
		<path id="Layer" class="s2" d="m140.5 141q0.9-1.1 1.9-2.1 0.9-0.9 2.1-1.7 1.1-0.8 2.4-1.4 1.2-0.5 2.6-0.9"/>
		<path id="Layer" class="s2" d="m118.3 94.6c0 0 18.6 7.4 30.6 11.7 0 0 14.8 13.9 30.7 62.1 0 0-14.6 24.4-42.2 32.3"/>
		<path id="Layer" class="s2" d="m142.2 178.1l13.4-11.1c0 0 7-5.4 14.4-1.7"/>
		<path id="Layer" class="s2" d="m141.7 139.7c0 0 11 16.3 13.9 27.3"/>
		<path id="Layer" class="s2" d="m49.9 170.4c6.5-4.4 12.3-3.4 12.3-3.4l3.9 3.7"/>
		<path id="Layer" class="s2" d="m62.2 167c0 0 4.9-16 9.7-24.2"/>
		<path id="Layer" class="s2" d="m71.9 199.3c-10.3-5.4-31.2-18.4-31-24.1 0.3-6.5 10.3-62.7 12.9-65.7 2.6-2.9 29.4-12.9 29.4-12.9"/>
		<path id="Layer" class="s5" d="m103.3 115.6c0 0.7-0.4 1.3-1.1 1.6-0.7 0.3-1.4 0.1-1.9-0.4-0.5-0.5-0.7-1.3-0.4-1.9 0.3-0.7 0.9-1.1 1.6-1.1q0.4 0 0.7 0.1 0.3 0.2 0.6 0.4 0.2 0.3 0.4 0.6 0.1 0.3 0.1 0.7z"/>
		<path id="Layer" class="s5" d="m134.3 209.8h-61q-0.3 0-0.5-0.1-0.3-0.1-0.5-0.3-0.2-0.2-0.3-0.5-0.1-0.3-0.1-0.6 0-0.2 0.1-0.5 0.1-0.3 0.3-0.5 0.2-0.2 0.5-0.3 0.2-0.1 0.5-0.1h61q0.3 0 0.6 0.1 0.2 0.1 0.4 0.3 0.2 0.2 0.3 0.5 0.1 0.3 0.1 0.5 0 0.3-0.1 0.6-0.1 0.3-0.3 0.5-0.2 0.2-0.4 0.3-0.3 0.1-0.6 0.1z"/>
		<path id="Layer" class="s8" d="m135.9 206.3q-0.3 0.6-0.9 1.1-0.6 0.4-1.2 0.6-0.7 0.3-1.4 0.2l-55.8-1.2q-0.7-0.1-1.4-0.3-0.6-0.2-1.2-0.7-0.5-0.4-0.9-1-0.3-0.6-0.4-1.3l-7.4-37.1q-0.1-0.9 0.1-1.8 0.2-0.9 0.8-1.6 0.6-0.7 1.4-1.1 0.8-0.4 1.7-0.4h71.3q1 0 1.8 0.4 0.8 0.4 1.4 1.1 0.6 0.7 0.8 1.6 0.2 0.9 0 1.8l-8.1 38.4q-0.2 0.7-0.6 1.3z"/>
		<path id="Layer" class="s5" d="m110.4 183.8c0 2.3-1.4 4.4-3.5 5.3-2.1 0.9-4.6 0.4-6.2-1.3-1.6-1.6-2.1-4-1.2-6.2 0.9-2.1 2.9-3.5 5.2-3.5q1.2 0 2.2 0.5 1.1 0.4 1.9 1.2 0.8 0.8 1.2 1.8 0.4 1.1 0.4 2.2z"/>
		<path id="Layer" class="s2" d="m121.6 165.3h8.5"/>
		<path id="Layer" class="s2" d="m81.2 165.3h32.1"/>
		<path id="Layer" class="s5" d="m136.6 245.8l-6.5 17c0 0-16.6-4.2-37.8-8.5-22.2-4.6-45.4-10.4-57.4-31.6-1.5-2.5-2.5-5.6-1.8-8.4 1.7-7.3 11.2-9.3 17.5-10q1.5-0.2 2.9-0.3 1.5-0.1 3-0.2 1.5-0.1 2.9-0.2 1.5 0 3 0c2 0 8.7-1.1 10.3 0.1q0.9 0.7 1.8 1.3 1 0.6 1.9 1.2 1 0.5 2 1.1 1 0.5 2 1c3.5 1.5 55.4-1.4 55.4-1.4q0.3-0.7 0.6-1.5 0.2-0.7 0.4-1.5 0.2-0.8 0.4-1.6 0.1-0.8 0.2-1.6c8.1-4.2 27-7.7 35-6.1 12.5 2.4 19.8 9.7 18.4 17.4-1.4 7.7-29 28.2-54.2 33.8z"/>
		<path id="Layer" class="s9" d="m67.1 216.2c17.9-2.1 28 8 40.9 16.7 12.8 8.7 28.6 12.9 28.6 12.9"/>
		<path id="Layer" class="s9" d="m105 230.8c8.1-2.3 14.1-7.6 20.6-12.6q2.6-2.1 5.3-4 2.7-2 5.4-3.8 2.8-1.8 5.7-3.5 2.8-1.7 5.7-3.2"/>
		<path id="Layer" class="s2" d="m102.1 63.1h2.4"/>
	</g>
</svg>