<svg id="visual" viewBox="0 0 900 600" width="900" height="600" xmlns="http://www.w3.org/2000/svg" xmlns:xlink="http://www.w3.org/1999/xlink" version="1.1"><rect x="0" y="0" width="900" height="600" fill="#ffffff"></rect><path d="M546 0L530.8 11.2C515.7 22.3 485.3 44.7 471.5 66.8C457.7 89 460.3 111 460 133.2C459.7 155.3 456.3 177.7 451.2 200C446 222.3 439 244.7 449.3 266.8C459.7 289 487.3 311 488.7 333.2C490 355.3 465 377.7 442.3 400C419.7 422.3 399.3 444.7 401.2 466.8C403 489 427 511 454 533.2C481 555.3 511 577.7 526 588.8L541 600L0 600L0 588.8C0 577.7 0 555.3 0 533.2C0 511 0 489 0 466.8C0 444.7 0 422.3 0 400C0 377.7 0 355.3 0 333.2C0 311 0 289 0 266.8C0 244.7 0 222.3 0 200C0 177.7 0 155.3 0 133.2C0 111 0 89 0 66.8C0 44.7 0 22.3 0 11.2L0 0Z" fill="#072e68"></path><path d="M395 0L403 11.2C411 22.3 427 44.7 433 66.8C439 89 435 111 420.2 133.2C405.3 155.3 379.7 177.7 366.2 200C352.7 222.3 351.3 244.7 360.2 266.8C369 289 388 311 409.7 333.2C431.3 355.3 455.7 377.7 449.3 400C443 422.3 406 444.7 388.5 466.8C371 489 373 511 376.3 533.2C379.7 555.3 384.3 577.7 386.7 588.8L389 600L0 600L0 588.8C0 577.7 0 555.3 0 533.2C0 511 0 489 0 466.8C0 444.7 0 422.3 0 400C0 377.7 0 355.3 0 333.2C0 311 0 289 0 266.8C0 244.7 0 222.3 0 200C0 177.7 0 155.3 0 133.2C0 111 0 89 0 66.8C0 44.7 0 22.3 0 11.2L0 0Z" fill="#033780"></path><path d="M382 0L377.8 11.2C373.7 22.3 365.3 44.7 356.8 66.8C348.3 89 339.7 111 345.2 133.2C350.7 155.3 370.3 177.7 377 200C383.7 222.3 377.3 244.7 368.5 266.8C359.7 289 348.3 311 342.8 333.2C337.3 355.3 337.7 377.7 333.8 400C330 422.3 322 444.7 329.8 466.8C337.7 489 361.3 511 356.8 533.2C352.3 555.3 319.7 577.7 303.3 588.8L287 600L0 600L0 588.8C0 577.7 0 555.3 0 533.2C0 511 0 489 0 466.8C0 444.7 0 422.3 0 400C0 377.7 0 355.3 0 333.2C0 311 0 289 0 266.8C0 244.7 0 222.3 0 200C0 177.7 0 155.3 0 133.2C0 111 0 89 0 66.8C0 44.7 0 22.3 0 11.2L0 0Z" fill="#004198"></path><path d="M323 0L313.5 11.2C304 22.3 285 44.7 279.3 66.8C273.7 89 281.3 111 276.8 133.2C272.3 155.3 255.7 177.7 253.3 200C251 222.3 263 244.7 265.7 266.8C268.3 289 261.7 311 270 333.2C278.3 355.3 301.7 377.7 303.8 400C306 422.3 287 444.7 284.3 466.8C281.7 489 295.3 511 305 533.2C314.7 555.3 320.3 577.7 323.2 588.8L326 600L0 600L0 588.8C0 577.7 0 555.3 0 533.2C0 511 0 489 0 466.8C0 444.7 0 422.3 0 400C0 377.7 0 355.3 0 333.2C0 311 0 289 0 266.8C0 244.7 0 222.3 0 200C0 177.7 0 155.3 0 133.2C0 111 0 89 0 66.8C0 44.7 0 22.3 0 11.2L0 0Z" fill="#004ab1"></path><path d="M271 0L269.2 11.2C267.3 22.3 263.7 44.7 252.3 66.8C241 89 222 111 218.5 133.2C215 155.3 227 177.7 225.2 200C223.3 222.3 207.7 244.7 200.3 266.8C193 289 194 311 206 333.2C218 355.3 241 377.7 240 400C239 422.3 214 444.7 199.3 466.8C184.7 489 180.3 511 192.5 533.2C204.7 555.3 233.3 577.7 247.7 588.8L262 600L0 600L0 588.8C0 577.7 0 555.3 0 533.2C0 511 0 489 0 466.8C0 444.7 0 422.3 0 400C0 377.7 0 355.3 0 333.2C0 311 0 289 0 266.8C0 244.7 0 222.3 0 200C0 177.7 0 155.3 0 133.2C0 111 0 89 0 66.8C0 44.7 0 22.3 0 11.2L0 0Z" fill="#0053cb"></path><path d="M111 0L115.5 11.2C120 22.3 129 44.7 138.2 66.8C147.3 89 156.7 111 157.7 133.2C158.7 155.3 151.3 177.7 144.5 200C137.7 222.3 131.3 244.7 138.2 266.8C145 289 165 311 174.5 333.2C184 355.3 183 377.7 172.3 400C161.7 422.3 141.3 444.7 137 466.8C132.7 489 144.3 511 144.5 533.2C144.7 555.3 133.3 577.7 127.7 588.8L122 600L0 600L0 588.8C0 577.7 0 555.3 0 533.2C0 511 0 489 0 466.8C0 444.7 0 422.3 0 400C0 377.7 0 355.3 0 333.2C0 311 0 289 0 266.8C0 244.7 0 222.3 0 200C0 177.7 0 155.3 0 133.2C0 111 0 89 0 66.8C0 44.7 0 22.3 0 11.2L0 0Z" fill="#005de5"></path><path d="M74 0L74 11.2C74 22.3 74 44.7 83.2 66.8C92.3 89 110.7 111 105.5 133.2C100.3 155.3 71.7 177.7 58 200C44.3 222.3 45.7 244.7 54.5 266.8C63.3 289 79.7 311 89.5 333.2C99.3 355.3 102.7 377.7 102 400C101.3 422.3 96.7 444.7 87.5 466.8C78.3 489 64.7 511 62.3 533.2C60 555.3 69 577.7 73.5 588.8L78 600L0 600L0 588.8C0 577.7 0 555.3 0 533.2C0 511 0 489 0 466.8C0 444.7 0 422.3 0 400C0 377.7 0 355.3 0 333.2C0 311 0 289 0 266.8C0 244.7 0 222.3 0 200C0 177.7 0 155.3 0 133.2C0 111 0 89 0 66.8C0 44.7 0 22.3 0 11.2L0 0Z" fill="#0066ff"></path></svg>