<svg id="visual" viewBox="0 0 900 600" width="900" height="600" xmlns="http://www.w3.org/2000/svg" xmlns:xlink="http://www.w3.org/1999/xlink" version="1.1"><rect x="0" y="0" width="900" height="600" fill="#ffffff"></rect><path d="M235 600L275.8 585.7C316.7 571.3 398.3 542.7 416.8 514.2C435.3 485.7 390.7 457.3 385.7 428.8C380.7 400.3 415.3 371.7 419.2 343C423 314.3 396 285.7 386.8 257C377.7 228.3 386.3 199.7 404.3 171.2C422.3 142.7 449.7 114.3 443 85.8C436.3 57.3 395.7 28.7 375.3 14.3L355 0L900 0L900 14.3C900 28.7 900 57.3 900 85.8C900 114.3 900 142.7 900 171.2C900 199.7 900 228.3 900 257C900 285.7 900 314.3 900 343C900 371.7 900 400.3 900 428.8C900 457.3 900 485.7 900 514.2C900 542.7 900 571.3 900 585.7L900 600Z" fill="#072e68"></path><path d="M505 600L493.7 585.7C482.3 571.3 459.7 542.7 450 514.2C440.3 485.7 443.7 457.3 424.7 428.8C405.7 400.3 364.3 371.7 339.5 343C314.7 314.3 306.3 285.7 317.8 257C329.3 228.3 360.7 199.7 373 171.2C385.3 142.7 378.7 114.3 365.3 85.8C352 57.3 332 28.7 322 14.3L312 0L900 0L900 14.3C900 28.7 900 57.3 900 85.8C900 114.3 900 142.7 900 171.2C900 199.7 900 228.3 900 257C900 285.7 900 314.3 900 343C900 371.7 900 400.3 900 428.8C900 457.3 900 485.7 900 514.2C900 542.7 900 571.3 900 585.7L900 600Z" fill="#03367c"></path><path d="M512 600L510 585.7C508 571.3 504 542.7 493.7 514.2C483.3 485.7 466.7 457.3 450.3 428.8C434 400.3 418 371.7 423.5 343C429 314.3 456 285.7 452.3 257C448.7 228.3 414.3 199.7 407.2 171.2C400 142.7 420 114.3 446.3 85.8C472.7 57.3 505.3 28.7 521.7 14.3L538 0L900 0L900 14.3C900 28.7 900 57.3 900 85.8C900 114.3 900 142.7 900 171.2C900 199.7 900 228.3 900 257C900 285.7 900 314.3 900 343C900 371.7 900 400.3 900 428.8C900 457.3 900 485.7 900 514.2C900 542.7 900 571.3 900 585.7L900 600Z" fill="#003e91"></path><path d="M439 600L457.5 585.7C476 571.3 513 542.7 512.2 514.2C511.3 485.7 472.7 457.3 467.7 428.8C462.7 400.3 491.3 371.7 497.7 343C504 314.3 488 285.7 485 257C482 228.3 492 199.7 496.5 171.2C501 142.7 500 114.3 515.3 85.8C530.7 57.3 562.3 28.7 578.2 14.3L594 0L900 0L900 14.3C900 28.7 900 57.3 900 85.8C900 114.3 900 142.7 900 171.2C900 199.7 900 228.3 900 257C900 285.7 900 314.3 900 343C900 371.7 900 400.3 900 428.8C900 457.3 900 485.7 900 514.2C900 542.7 900 571.3 900 585.7L900 600Z" fill="#0046a6"></path><path d="M593 600L606.8 585.7C620.7 571.3 648.3 542.7 659.2 514.2C670 485.7 664 457.3 666.3 428.8C668.7 400.3 679.3 371.7 662 343C644.7 314.3 599.3 285.7 601.3 257C603.3 228.3 652.7 199.7 674 171.2C695.3 142.7 688.7 114.3 668.5 85.8C648.3 57.3 614.7 28.7 597.8 14.3L581 0L900 0L900 14.3C900 28.7 900 57.3 900 85.8C900 114.3 900 142.7 900 171.2C900 199.7 900 228.3 900 257C900 285.7 900 314.3 900 343C900 371.7 900 400.3 900 428.8C900 457.3 900 485.7 900 514.2C900 542.7 900 571.3 900 585.7L900 600Z" fill="#004ebc"></path><path d="M639 600L646.8 585.7C654.7 571.3 670.3 542.7 689.8 514.2C709.3 485.7 732.7 457.3 730.5 428.8C728.3 400.3 700.7 371.7 694.7 343C688.7 314.3 704.3 285.7 717.7 257C731 228.3 742 199.7 742.2 171.2C742.3 142.7 731.7 114.3 713.8 85.8C696 57.3 671 28.7 658.5 14.3L646 0L900 0L900 14.3C900 28.7 900 57.3 900 85.8C900 114.3 900 142.7 900 171.2C900 199.7 900 228.3 900 257C900 285.7 900 314.3 900 343C900 371.7 900 400.3 900 428.8C900 457.3 900 485.7 900 514.2C900 542.7 900 571.3 900 585.7L900 600Z" fill="#0056d2"></path><path d="M702 600L708.3 585.7C714.7 571.3 727.3 542.7 735.8 514.2C744.3 485.7 748.7 457.3 754 428.8C759.3 400.3 765.7 371.7 774.8 343C784 314.3 796 285.7 786 257C776 228.3 744 199.7 742.8 171.2C741.7 142.7 771.3 114.3 772.8 85.8C774.3 57.3 747.7 28.7 734.3 14.3L721 0L900 0L900 14.3C900 28.7 900 57.3 900 85.8C900 114.3 900 142.7 900 171.2C900 199.7 900 228.3 900 257C900 285.7 900 314.3 900 343C900 371.7 900 400.3 900 428.8C900 457.3 900 485.7 900 514.2C900 542.7 900 571.3 900 585.7L900 600Z" fill="#005ee8"></path><path d="M773 600L786.5 585.7C800 571.3 827 542.7 834.2 514.2C841.3 485.7 828.7 457.3 827.5 428.8C826.3 400.3 836.7 371.7 837.7 343C838.7 314.3 830.3 285.7 819.5 257C808.7 228.3 795.3 199.7 797.2 171.2C799 142.7 816 114.3 816 85.8C816 57.3 799 28.7 790.5 14.3L782 0L900 0L900 14.3C900 28.7 900 57.3 900 85.8C900 114.3 900 142.7 900 171.2C900 199.7 900 228.3 900 257C900 285.7 900 314.3 900 343C900 371.7 900 400.3 900 428.8C900 457.3 900 485.7 900 514.2C900 542.7 900 571.3 900 585.7L900 600Z" fill="#0066ff"></path></svg>